<?xml version="1.0" standalone="no"?>
<!DOCTYPE svg PUBLIC "-//W3C//DTD SVG 20010904//EN"
 "http://www.w3.org/TR/2001/REC-SVG-20010904/DTD/svg10.dtd">
<svg version="1.0" xmlns="http://www.w3.org/2000/svg"
 width="767.000000pt" height="767.000000pt" viewBox="0 0 767.000000 767.000000"
 preserveAspectRatio="xMidYMid meet">
<metadata>
Created by potrace 1.11, written by Peter Selinger 2001-2013
</metadata>
<g transform="translate(0.000000,767.000000) scale(0.100000,-0.100000)"
fill="#000000" stroke="none">
<path d="M1636 7313 c-14 -86 -696 -4970 -696 -4981 0 -9 204 -12 862 -10
l861 3 122 450 c68 248 367 1348 665 2445 298 1097 550 2025 560 2063 l19 67
-1194 0 -1193 0 -6 -37z"/>
<path d="M4580 7345 c0 -2 -157 -1128 -350 -2502 -192 -1374 -350 -2504 -350
-2511 0 -10 176 -12 862 -10 l861 3 123 450 c386 1423 1208 4450 1224 4508
l19 67 -1195 0 c-657 0 -1194 -2 -1194 -5z"/>
<path d="M1565 2144 c-214 -29 -338 -64 -479 -135 -167 -84 -288 -184 -396
-329 -54 -72 -126 -219 -145 -295 -93 -377 8 -733 262 -924 131 -98 318 -177
503 -212 85 -17 385 -17 480 -1 370 63 634 220 808 482 175 264 199 676 56
950 -116 223 -356 380 -684 446 -72 15 -343 27 -405 18z"/>
<path d="M4495 2144 c-271 -41 -467 -113 -631 -230 -127 -90 -248 -233 -320
-379 -124 -253 -124 -594 2 -835 97 -186 284 -329 534 -408 146 -46 227 -57
415 -56 440 1 781 149 1000 434 214 278 256 710 99 1010 -111 213 -333 366
-634 437 -84 19 -138 25 -270 28 -91 2 -178 1 -195 -1z"/>
</g>
</svg>
